<?xml version="1.0" encoding="UTF-8" standalone="no"?>
<!DOCTYPE svg PUBLIC "-//W3C//DTD SVG 1.1//EN" "http://www.w3.org/Graphics/SVG/1.1/DTD/svg11.dtd">
<svg width="100%" height="100%" viewBox="0 0 871 1319" version="1.1" xmlns="http://www.w3.org/2000/svg" xmlns:xlink="http://www.w3.org/1999/xlink" xml:space="preserve" xmlns:serif="http://www.serif.com/" style="fill-rule:evenodd;clip-rule:evenodd;stroke-linejoin:round;stroke-miterlimit:2;">
    <g transform="matrix(3.91859,0,0,3.92093,-61.0719,-2592.42)">
        <path d="M161.09,733.26C159.59,732.06 158.13,730.81 156.49,729.82C148.22,724.29 137.99,722 128.13,723.01C122.16,723.55 116.33,725.55 111.23,728.69C106.06,732.03 101.65,736.62 98.88,742.14C95.84,747.78 94.83,754.25 94.61,760.59C94.24,764.88 93.98,769.41 91.74,773.22C90.6,775.07 89.3,776.94 87.35,778.01C91.36,778 95.26,776.3 98.34,773.79C102.91,770.22 106.07,764.93 107.26,759.27C107.65,759.29 108.08,759.27 108.37,759.59C109.42,752.77 113.31,746.07 119.55,742.8C123.75,740.48 128.65,739.78 133.39,739.96C132.27,740.21 131.11,740.13 129.99,740.38C127.15,741 124.39,741.97 121.79,743.27C117.17,745.59 113.62,749.72 111.59,754.44C110.92,755.99 110.69,757.68 110.31,759.32C111.99,759.24 113.67,759.27 115.35,759.32C116.21,756.25 118,753.42 120.41,751.32C123.74,748.57 128.37,747.79 132.54,748.62C134.95,749.21 137.11,750.45 139.23,751.7C139.33,751.66 139.52,751.59 139.62,751.55C140.53,750.25 141.53,749.02 142.58,747.83C142.14,747.49 141.65,747.24 141.15,747.01C141.09,747.09 140.96,747.26 140.89,747.34C140.88,747.2 140.84,746.94 140.82,746.8C134.08,743.67 125.57,744.14 119.58,748.69C118.09,749.73 116.94,751.16 115.55,752.31C116.25,751.07 117.09,749.93 117.96,748.81C120.71,745.76 124.68,743.94 128.76,743.61C132.26,743.37 135.88,743.51 139.19,744.78C140.89,745.33 142.4,746.29 143.98,747.1C144.46,745.97 145.62,745.38 146.4,744.48C150.96,740.24 156.15,736.53 161.98,734.29C161.69,733.93 161.45,733.53 161.09,733.26Z" style="fill:rgb(179,0,0);fill-rule:nonzero;"/>
    </g>
    <g transform="matrix(3.91859,0,0,3.92093,-61.0719,-2592.42)">
        <path d="M218.91,985.79C202.46,984.95 185.96,984.68 169.49,983.99C169.55,981.81 168.34,979.84 168.36,977.66C168.3,975.9 168.76,974.2 168.95,972.48C168.68,971.77 167.86,971.37 167.71,970.61C167.69,970.06 168.11,969.73 168.49,969.42C168.32,968.73 168.09,968.04 167.84,967.35C167.3,965.95 167.51,964.4 167.48,962.93C167.61,957.32 167.81,951.7 168.13,946.09C168.3,942.68 168.55,939.28 169.24,935.95C169.81,933.92 168.59,932.03 167.56,930.4C165.44,926.98 162.64,924.03 160.81,920.45C159.99,918.06 160.06,915.46 160.14,912.95C162.3,915.46 165.54,917.35 168.94,917.06C171.77,916.81 174.22,915.13 176.36,913.39C174.93,913.93 173.38,913.77 171.92,913.33C171.92,913.18 171.88,912.91 171.88,912.76C171.8,912.86 171.65,913.01 171.57,913.1C170.5,912.45 169.52,911.61 168.95,910.48C169.45,910.84 169.98,911.09 170.5,911.38C172.74,912.57 175.4,912.43 177.83,912.01C180.68,911.36 183.72,910.69 186.57,911.65C189.98,912.74 193.51,914.18 197.15,913.45C195.83,912.57 194.7,911.5 193.63,910.33C191.24,907.82 187.72,906.45 184.26,906.83C181.18,907.21 177.98,907.25 175.04,906.12C170.07,904.25 166.37,900.21 163.16,896.11C165.11,897.56 167.14,898.92 169.4,899.88C173.26,901.7 177.51,903.02 181.84,902.77C186.43,902.64 190.87,900.78 194.39,897.87C197.99,894.79 200.86,890.91 203.11,886.75C205.42,882.14 207.07,877.22 208.18,872.17C210.38,861.72 210.21,850.76 207.49,840.43C206.06,834.94 204.05,829.56 201.1,824.68C198.29,819.84 194.54,815.4 189.74,812.42C186.39,810.51 182.68,808.98 178.78,808.86C174.51,808.48 170.09,809.41 166.42,811.65C166.52,809.45 165.75,807.35 165.04,805.3C164.6,804.02 164.16,802.74 163.51,801.55C164.79,801.45 166.07,801.4 167.36,801.4C166.02,798.72 164.05,796.37 161.66,794.53C160.72,793.84 159.73,793.13 158.56,792.85C159.34,792.54 160.22,792.45 160.97,792.01C159.86,791.28 158.75,790.48 157.45,790.12C156.05,789.68 154.58,789.76 153.15,789.97C153.34,789.47 153.42,788.99 153.34,788.48C152.52,787.58 151.27,787.27 150.14,786.97C147.52,786.34 144.9,787.16 142.28,787.35C139.93,786.97 137.78,785.67 135.39,785.34C135.39,784.44 135.37,783.56 135.39,782.66C137.38,783.54 139.14,784.84 141.09,785.8C140.65,780.4 140.78,774.99 140.57,769.58C139.15,768.8 137.18,768.72 136.13,767.3C135.88,766.96 135.69,766.31 136.07,766.02C138.02,765.5 139.94,766.44 141.85,766.63C142.02,770.86 141.98,775.09 142.1,779.33C142.16,779.77 142.02,780.32 142.44,780.63C143.42,781.55 144.53,782.31 145.48,783.27C145.1,781.43 144.96,779.58 144.83,777.72C144.62,775.88 144.31,774.05 144.22,772.19C144.76,772.59 145.35,772.94 145.87,773.4C145.77,771.87 145.53,770.36 145.47,768.85C144.92,763.32 145.55,757.77 146.16,752.28C143.75,753.81 141.2,755.05 138.76,756.51C135.43,758.19 132.1,759.99 128.5,761.08C128.9,760.81 129.36,760.62 129.78,760.35C132.9,758.36 136.11,756.49 139.27,754.59C137.11,752.66 134.72,750.8 131.83,750.17C129.04,749.46 126.17,750.19 123.6,751.32C120.5,753.18 118.17,756.22 117.23,759.7C116.25,762.7 116.92,765.92 117.59,768.92C117.69,769.57 118.03,770.28 117.67,770.93C116.5,773.49 114.7,775.73 113.4,778.22C115.29,778.33 117.15,778.6 119.04,778.58C118.68,780.95 118.73,783.38 118.18,785.72C118.14,786.08 117.74,786.2 117.47,786.39C116.19,787.17 114.93,787.98 113.61,788.7C112.98,789.04 112.42,789.6 111.66,789.66C111.79,788.49 112.94,787.98 113.67,787.21C112.69,786.81 112.02,785.78 111.03,785.53C109.77,786.56 108.6,787.75 107.49,788.95C106.86,788.99 106.76,788.07 106.46,787.67C105.25,787.4 104.26,788.32 103.09,788.38C103.84,789.97 105,791.33 105.69,792.95C106.17,794 105.36,795.13 104.47,795.67C103.63,796.15 102.58,796.57 101.6,796.24C100.45,795.42 99.61,794.25 98.84,793.06C99.09,792.54 99.59,792.22 100.05,791.91C100.36,791.47 99.57,791.16 99.27,791.49C98.39,792.06 97.34,792.39 96.52,793.06C98.28,795.28 99.94,797.56 101.82,799.7C100.37,799.36 99.52,797.92 98.13,797.4C97.04,796.94 95.83,796.98 94.69,796.86C93.75,797.68 92.87,798.6 92.13,799.61C92.63,799.86 93.16,799.97 93.72,800.05C92.71,802.29 91.42,804.55 91.23,807.03C92.63,806.49 94.06,806.11 95.5,805.75C95.63,807.3 96.25,808.73 96.57,810.23C96.19,811.47 95.42,812.62 95.27,813.92C95.16,815.14 95,816.37 94.98,817.59C95.04,820.4 94.2,823.14 93.51,825.85C93.32,826.77 92.8,827.59 92.21,828.32C89.51,831.78 89.19,836.39 86.68,839.97C86.72,840.33 86.58,840.66 86.34,840.91C86.82,838.17 86.84,835.36 87.07,832.57C87.32,831.5 87.18,830.33 87.57,829.28C87.59,828.86 88.07,828.36 87.67,828.02C85.89,831.25 84.25,834.56 83.02,838.06C81.27,842.92 79.55,847.8 77.67,852.61C77.7,854.97 77.74,857.36 77.77,859.77L83.59,860.82C83.63,860.38 83.92,860.04 84.14,859.69C87.09,855.46 90.68,851.71 94.59,848.36C95.51,847.44 96.64,846.6 97.12,845.34C98.44,842.24 98.9,838.87 100.05,835.72C101.26,832.81 104.03,831.07 105.83,828.6C106.9,827.36 107.49,825.81 108.3,824.39C108.85,826.99 110.04,829.38 110.69,831.97C112.01,836.54 111.44,841.34 111.13,846.01C110.42,845.95 109.7,845.84 109.01,845.65C108.59,847.83 108.02,850.01 107.86,852.23C108.4,852.86 107.9,853.7 107.8,854.39C103.95,868.7 98.9,882.63 94.22,896.67C95,896.48 97.2,896 97.63,896.12C97.02,900.5 97.71,904.9 98.43,909.21C99.83,907.07 100.99,904.77 102.16,902.49C102.2,905.05 102.33,907.6 102.35,910.16C102.39,911.82 101.24,913.2 99.98,914.14C99.16,914.73 97.89,914.22 97.23,915.06C96.71,915.56 96.45,916.23 96.27,916.92C96.79,920.36 96.9,923.86 96.69,927.35C95.43,936.61 95.04,945.95 94.18,955.24C93.72,959.79 93.41,964.42 92.09,968.84C91.25,970.58 90.52,972.7 88.61,973.53C85.97,974.93 83.39,976.44 80.82,978.01C79.46,978.74 77.93,979.18 76.38,979.29C75.69,979.21 74.91,978.64 74.28,979.25C72.58,980.3 72.75,982.52 72.94,984.24C57.63,984.95 42.31,985.16 27.04,986.29C25.72,986.4 24.38,986.39 23.08,986.65C24.4,986.61 25.7,986.82 27,986.88C38.44,987.59 49.9,987.82 61.36,988.05C74.35,988.36 87.34,988.47 100.33,988.51C136.49,988.55 172.67,988.74 208.83,987.67C216.37,987.54 223.91,987.19 231.42,986.6C231.42,986.56 231.4,986.49 231.4,986.47C227.21,986.33 223.06,986 218.91,985.79ZM188.8,830.25C193.3,833.06 195.97,837.9 197.7,842.76C199.44,847.45 200,852.5 200.07,857.49C200.17,865.03 198.33,872.89 193.47,878.82C191.17,881.57 187.69,883.76 183.98,883.35C181,883.14 178.49,881.19 176.54,879.03C169.84,870.94 167.78,859.67 169.79,849.49C169.92,848.94 169.96,848.36 170.06,847.79L170.35,847.83C170.29,847.24 170.37,846.66 170.52,846.09C170.58,845.5 170.65,844.9 170.9,844.37C170.88,844.91 171.26,845.82 170.61,846.09C170.67,847.01 170.44,847.93 170.34,848.84C170.21,852.23 170.11,855.65 170.34,859.04C170.93,865.28 172.83,871.49 176.4,876.7C177.95,878.75 179.65,880.93 182.16,881.81C184.57,882.77 187.27,881.91 189.33,880.55C192.66,878.12 194.82,874.41 196.22,870.6C198,866.05 198.5,861.11 198.46,856.25C198.27,849.92 196.81,843.51 193.64,837.98C191.99,835.24 189.93,832.64 187.14,831.04C184.96,829.76 182.13,829.55 179.85,830.71C178.09,831.4 176.94,832.97 175.64,834.25C174.82,835.59 173.77,836.76 172.98,838.11C173.92,836.37 174.95,834.69 176.25,833.21C177.07,832.39 177.88,831.56 178.79,830.84C179.78,830.13 180.89,829.58 182.06,829.21C184.34,828.65 186.81,828.97 188.8,830.25ZM134.86,874.05C136.66,878.32 138.86,882.41 140.71,886.66C141.4,888.4 142.36,890.01 142.95,891.77C138,885.05 134.28,877.5 130.86,869.92C128.43,864.85 126.29,859.67 124.22,854.46C125.79,856.62 127.36,858.8 129.08,860.85C132.96,866.05 137.17,871.01 141.02,876.25C142.59,878.39 144.14,880.55 145.71,882.7C146.3,883.25 146.97,883.83 147.13,884.67C147,884.63 146.71,884.57 146.58,884.56C146.18,884.06 145.78,883.55 145.47,883.01C141.28,878.72 136.52,874.94 133.05,870C133.47,871.41 134.29,872.69 134.86,874.05ZM134.46,908.35C132.72,907.01 131.28,905.31 130.16,903.43C131.59,905.08 132.95,906.78 134.46,908.35ZM116.54,829.32C115.56,830.54 114.49,831.88 112.94,832.34C112.4,831.04 111.98,829.66 111.96,828.25C114.22,827.7 116.59,827.45 118.66,826.32C118.26,827.48 117.3,828.36 116.54,829.32ZM118.6,835.84C117.22,837.85 115.62,839.69 114.26,841.71C113.65,841.92 113.55,841.02 113.46,840.62C113.36,839.32 113.04,837.98 113.29,836.7C115.02,836.3 116.84,836.17 118.6,835.84ZM124.78,850.23C123.52,850.29 122.35,850.84 121.07,850.73C118.58,850.84 116.08,850.88 113.59,850.81C113.09,850.81 113.02,850.22 113.02,849.85L112.83,849.79C116.8,849.75 120.82,849.69 124.78,850.23ZM113.86,852.54C115.68,852.43 117.48,852.62 119.29,852.62C119.98,852.66 120.74,852.58 121.39,852.91C118.88,853.2 116.36,853.46 113.81,853.37C113.84,853.15 113.86,852.75 113.86,852.54ZM117.57,867.33C119.69,874.62 122.01,881.85 124.53,889.01C125.26,891.29 126.29,893.47 126.83,895.78C125.84,894.59 125.3,892.87 123.77,892.24C123.02,891.84 122.12,891.9 121.36,891.57C120.27,888.64 119.68,885.56 118.83,882.56C117.41,876.51 116.06,870.43 115.35,864.25C114.91,861.07 114.64,857.88 114.22,854.7C115.33,858.91 116.25,863.16 117.57,867.33ZM123.42,752.46C125.66,751.6 128.24,751.91 130.33,753C126.87,753.84 123.44,755.35 120.9,757.94C120.31,758.55 119.75,759.22 119.41,760.03C119.06,757 120.76,753.88 123.42,752.46ZM121.87,792.39C122.04,791.4 122.2,790.4 122.23,789.41C122.31,787.98 122.67,786.56 122.48,785.12C123.03,787.66 122.54,790.4 123.44,792.87C125.16,793.29 126.73,794.27 128.53,794.4C126.88,794.84 125.2,794.51 123.52,794.42C120.31,794.19 117.21,793.27 114.05,792.72C116.59,792.09 119.27,792.26 121.87,792.39ZM109.73,791.24C110.42,792.14 110.9,793.17 111.41,794.17C112.63,794.27 113.8,794.65 114.99,794.9C120.9,796.14 126.81,797.41 132.78,798.42C135.75,799.01 138.77,799.22 141.73,799.8C138.13,800.13 134.56,800.45 130.94,800.34C124.07,800.32 117.36,798.43 111.1,795.67C110.79,796.26 110.49,796.86 110.11,797.41C110.21,796.34 110.59,795.21 110.22,794.14C109.84,792.93 109.26,791.71 108.13,791C107.58,790.52 106.68,790.46 106.27,789.79C107.6,789.6 108.92,790.21 109.73,791.24ZM125.36,804.96C124.54,806.53 123.33,808.14 121.61,808.69C121.76,806.99 121.78,805.27 122.16,803.6C123.29,803.91 124.32,804.46 125.36,804.96ZM107.6,812.46C106.01,812.08 104.77,810.64 104.39,809.07C104.12,806.98 104.41,804.88 104.81,802.83C107.14,802.29 108.92,800.63 110.38,798.81C112.96,799.35 115.49,800.3 117.59,801.91C117.63,803.94 117.04,805.89 116.6,807.84C116.29,808.85 115.99,810.02 114.99,810.58C112.79,811.91 110.17,812.5 107.6,812.46ZM111.24,824.25C110.63,822.85 110.15,821.36 110.15,819.83C113.42,818.24 116.77,816.85 119.93,815.05C120.75,815.03 121.63,815.03 122.4,815.43C123.62,816.23 124.31,817.59 125.44,818.49C123.66,818.55 121.9,818.32 120.12,818.16C117.3,820.4 114.03,821.99 111.24,824.25ZM109.29,861.13C109.33,859.6 109.71,858.11 109.6,856.58C110.21,863.22 111.03,869.86 112.01,876.46C113,882.68 114.55,888.8 116.12,894.9C115.47,894.35 115.16,893.48 114.53,892.91C113.15,891.7 111.32,891.25 109.59,890.82C109.07,887.09 109.05,883.32 108.82,879.57C108.64,873.42 108.54,867.24 109.29,861.13ZM101.81,893.27C101.24,892.72 100.55,892.29 99.9,891.85C99.44,891.54 99.8,890.99 99.9,890.61C100.99,887.03 101.93,883.42 103.02,879.84C103.65,877.91 104.3,875.98 104.74,873.99C104.8,876.23 104.28,878.43 103.99,880.63C103.37,884.87 102.48,889.05 101.81,893.27ZM157.75,972.13C157.42,974.35 156.54,976.45 155.66,978.52C155.28,979.78 153.52,979.95 153.31,981.31C153.14,982.13 153.14,982.99 153.1,983.84C136.61,983.78 120.14,983.73 103.66,983.88C103.77,981.28 103.14,978.71 103.14,976.13C103.06,975.15 103.98,974.56 104.21,973.68C104.25,972.65 103.08,971.98 103.22,970.94C103.47,968.91 104.25,967 104.87,965.07C106.65,960.08 108.7,955.18 110.97,950.4C112.04,947.95 113.28,945.56 114.13,943C114.72,941.24 114.63,939.33 114.51,937.49C114.2,933.47 112.79,929.67 111.77,925.78C111.5,924.75 111.35,923.62 111.77,922.58C113.45,918.03 116.02,913.88 118.54,909.76C119.27,908.57 119.86,907.33 120.7,906.24C122.98,909.61 126.36,912.34 130.32,913.41C133.78,914.4 137.53,913.83 140.81,912.43C142.55,915.17 143.89,918.15 145.1,921.17C145.62,922.47 146.27,923.81 147.41,924.67C147.77,924.96 148.27,925.24 148.21,925.78C148.38,929.66 148.27,933.55 148.04,937.43C147.79,939.21 149.65,940.18 150.32,941.62C152.19,945.26 153.3,949.22 154.59,953.1C155.81,957.14 156.98,961.23 157.61,965.42C157.92,966.74 157.04,967.87 156.88,969.11C157.15,970.13 157.98,971.01 157.75,972.13ZM151.39,872.88C148.83,865.28 148.04,857.15 148.69,849.18C149.05,844.59 150.09,840.07 151.41,835.67L151.52,835.48C152.3,832.53 153.45,829.72 154.71,826.95C154.98,826.13 155.53,825.34 155.48,824.44C151.69,829.8 149.87,836.26 148.61,842.63C147.4,842.67 146.22,842.92 145.05,843.2C145.07,840.48 145.34,837.77 145.87,835.11C146.52,831.51 149.05,828.74 150.98,825.75C151.88,824.2 152.87,822.71 153.73,821.14C153.84,821.12 154.06,821.06 154.17,821.04C154.82,822.11 155.57,823.13 156.04,824.29C156.63,823.75 156.82,822.95 157.3,822.34C158.64,820.58 159.94,818.78 161.41,817.14C164.28,814.27 167.67,811.73 171.65,810.71C175.15,809.68 178.86,809.73 182.46,810.14C177.54,809.97 172.57,811.56 168.72,814.67C166.42,816.43 164.51,818.67 162.81,821C160.74,823.72 159.21,826.78 157.91,829.92C153.66,839.7 152.55,850.58 153.43,861.12C154.18,870.25 157.05,879.18 161.6,887.12C162.29,888.33 163.15,889.47 163.63,890.79C162.48,889.2 160.53,888.48 159.19,887.08C155.41,883.15 153.12,878.03 151.39,872.88Z" style="fill:rgb(179,0,0);fill-rule:nonzero;"/>
    </g>
    <g transform="matrix(3.91859,0,0,3.92093,-61.0719,-2592.42)">
        <path d="M214.97,799.18C212,794.69 208.75,790.38 205.03,786.48C202.48,783.59 199.74,780.88 196.85,778.33C192.74,774.51 188.12,771.3 183.43,768.23C173.94,762.49 163.73,757.65 152.78,755.52C152.51,756.64 152.4,757.79 152.34,758.93C165.71,762.15 178.15,768.61 189.08,776.88C193.41,780.27 197.43,784.05 201.23,788.04C205.52,792.43 209.16,797.39 212.52,802.52C215.82,807.72 218.63,813.23 220.84,818.98C225.29,830.45 227.9,842.68 228.12,854.99C228.25,864.5 227.18,874.06 224.68,883.25C220.45,898.9 212.44,913.59 201.24,925.35C195.4,931.37 188.8,936.65 181.63,941.02C179.25,942.24 177.11,944.04 174.5,944.74C174.6,946.01 174.83,947.28 175.21,948.5C179.46,946.67 183.46,944.34 187.33,941.81C192.1,938.56 196.73,935.07 200.9,931.07C206.33,926.03 211.07,920.26 215.12,914.07C224.88,899.27 230.61,881.89 231.8,864.22C232.44,853.02 231.61,841.69 228.75,830.82C225.88,819.65 221.43,808.79 214.97,799.18Z" style="fill:rgb(224,169,52);fill-rule:nonzero;"/>
    </g>
    <g transform="matrix(3.91859,0,0,3.92093,-61.0719,-2592.42)">
        <path d="M60.12,918.64C59.97,918.6 59.67,918.54 59.52,918.5C58.94,919.58 58.09,920.47 57.48,921.53C60.43,924.46 63.37,927.43 66.62,930.05C66.63,930.06 66.64,930.07 66.65,930.08C66.63,928.42 66.6,926.72 66.58,924.99C64.3,922.99 62.11,920.91 60.12,918.64Z" style="fill:rgb(224,169,52);fill-rule:nonzero;"/>
    </g>
    <g transform="matrix(3.91859,0,0,3.92093,-61.0719,-2592.42)">
        <path d="M87.88,943.64C87.99,942.52 88.22,941.43 88.61,940.38C85.29,938.5 82,936.54 78.81,934.43C78.83,935.92 78.85,937.38 78.87,938.81C81.76,940.62 84.76,942.28 87.88,943.64Z" style="fill:rgb(224,169,52);fill-rule:nonzero;"/>
    </g>
    <g transform="matrix(3.91859,0,0,3.92093,-61.0719,-2592.42)">
        <path d="M81.9,768.3C84.14,767.11 86.31,765.75 88.69,764.85C88.45,763.63 88.41,762.38 88.2,761.16C84.19,762.68 80.45,764.77 76.79,767C76.78,768.51 76.77,770.01 76.77,771.5C78.43,770.35 80.16,769.32 81.9,768.3Z" style="fill:rgb(224,169,52);fill-rule:nonzero;"/>
    </g>
    <g transform="matrix(3.91859,0,0,3.92093,-61.0719,-2592.42)">
        <path d="M62.75,777.04C50.6,787.7 40.76,801.06 34.58,816.02C30.06,826.82 27.46,838.41 26.66,850.08C25.6,868.4 29.06,887.07 37.3,903.51C39.77,908.44 42.56,913.25 45.99,917.57C46.65,916.5 47.33,915.45 48.27,914.61C46.61,911.82 44.78,909.12 43.17,906.3C40.58,901.42 38.11,896.46 36.31,891.22C31.78,878.71 29.83,865.29 30.42,852.01C31.34,829.49 40.22,807.46 54.98,790.45C57.97,786.94 61.19,783.64 64.64,780.58C64.62,778.76 64.6,777.08 64.58,775.5C63.98,776.01 63.35,776.51 62.75,777.04Z" style="fill:rgb(224,169,52);fill-rule:nonzero;"/>
    </g>
    <g transform="matrix(3.91859,0,0,3.92093,-61.0719,-2592.42)">
        <path d="M173.78,942.36C175.63,941.88 177.24,940.71 178.9,939.76C185.48,935.93 191.52,931.23 197,925.97C199.91,923.04 202.84,920.11 205.31,916.78C208.04,913.15 210.65,909.41 212.85,905.43C222.09,889.21 226.24,870.26 225.34,851.66C224.61,839.41 221.77,827.27 216.86,816.02C212.17,805.57 205.64,795.92 197.55,787.8C187.47,777.43 175.06,769.4 161.57,764.22C158.46,763.05 155.24,762.22 152.06,761.26C152.02,762.46 151.85,763.64 151.79,764.84C153.72,765.33 155.62,765.92 157.48,766.63C167.36,770.13 176.68,775.25 184.89,781.78C189.33,785.13 193.39,788.96 197.15,793.06C203.37,799.71 208.35,807.44 212.32,815.6C216.9,825.8 220.02,836.7 221.16,847.83C223.05,868.15 218.38,889.13 207.58,906.5C203.43,913.36 198.21,919.56 192.28,924.96C188.84,928.31 185.07,931.32 181.09,934.01C178.31,935.79 175.66,937.81 172.66,939.22C173.18,940.19 173.59,941.26 173.78,942.36Z" style="fill:rgb(224,169,52);fill-rule:nonzero;"/>
    </g>
    <g transform="matrix(3.91859,0,0,3.92093,-61.0719,-2592.42)">
        <path d="M59.07,789.6C50.71,798.91 43.85,809.67 39.45,821.41C35.47,832.04 33.2,843.35 33.16,854.71C32.99,856.44 33.05,858.18 33.18,859.92C33.52,873.56 36.61,887.19 42.61,899.47C44.66,903.67 46.89,907.81 49.61,911.62C49.74,911.64 49.99,911.67 50.11,911.68C50.65,910.7 51.21,909.7 52.06,908.95C51.87,908.24 51.49,907.6 51.1,906.99C49.17,903.99 47.5,900.82 46.03,897.57C44.06,893.52 42.42,889.32 41.16,884.99C36.8,870.49 35.62,854.94 38.4,840.02C40.67,827.03 45.63,814.48 53.16,803.63C55.6,799.73 58.54,796.18 61.52,792.68C62.58,791.51 63.66,790.35 64.76,789.22C64.74,787.4 64.72,785.63 64.7,783.96C62.76,785.79 60.88,787.66 59.07,789.6Z" style="fill:rgb(224,169,52);fill-rule:nonzero;"/>
    </g>
    <g transform="matrix(3.91859,0,0,3.92093,-61.0719,-2592.42)">
        <path d="M89.03,771.39C88.87,770.17 88.69,768.96 88.65,767.73C88.29,767.77 87.91,767.72 87.6,767.96C84.79,769.5 82.03,771.13 79.28,772.77C78.43,773.33 77.61,773.93 76.77,774.52C76.76,776.08 76.76,777.62 76.76,779.14C80.66,776.27 84.74,773.65 89.03,771.39Z" style="fill:rgb(224,169,52);fill-rule:nonzero;"/>
    </g>
    <g transform="matrix(3.91859,0,0,3.92093,-61.0719,-2592.42)">
        <path d="M119.65,937.82C119.66,938.2 119.66,938.58 119.67,938.96C127.4,939.63 135.19,939.52 142.89,938.61C142.85,938.26 142.64,938.1 142.28,938.12C138.09,937.72 133.89,937.41 129.69,937.34C126.33,937.3 122.99,937.61 119.65,937.82Z" style="fill:rgb(224,169,52);fill-rule:nonzero;"/>
    </g>
    <g transform="matrix(3.91859,0,0,3.92093,-61.0719,-2592.42)">
        <path d="M156.34,782.14C159.29,782.51 162.27,782.52 165.24,782.65C169.97,782.88 174.72,782.63 179.45,782.87C178.34,782.22 177.37,781.02 175.97,781.18C169.42,781.15 162.83,781.11 156.34,782.14Z" style="fill:rgb(224,169,52);fill-rule:nonzero;"/>
    </g>
    <g transform="matrix(3.91859,0,0,3.92093,-61.0719,-2592.42)">
        <path d="M66.04,918.11C66.2,918.27 66.34,918.47 66.49,918.68C66.49,918.49 66.48,918.3 66.48,918.11L66.04,918.11Z" style="fill:rgb(224,169,52);fill-rule:nonzero;"/>
    </g>
    <g transform="matrix(3.91859,0,0,3.92093,-61.0719,-2592.42)">
        <path d="M89.24,919.29C89.65,919.21 90.17,919.3 90.49,918.96C86.53,918.49 82.56,918.26 78.57,918.16C78.58,918.72 78.59,919.28 78.59,919.83C82.15,919.74 85.7,919.58 89.24,919.29Z" style="fill:rgb(224,169,52);fill-rule:nonzero;"/>
    </g>
    <g transform="matrix(3.91859,0,0,3.92093,-61.0719,-2592.42)">
        <path d="M83.41,781.87C82.11,781.97 80.81,782.14 79.51,782.22C79.44,782.32 79.29,782.51 79.21,782.61C82.25,782.84 85.31,782.52 88.33,782.23C86.69,782.08 85.06,781.73 83.41,781.87Z" style="fill:rgb(224,169,52);fill-rule:nonzero;"/>
    </g>
    <g transform="matrix(3.91859,0,0,3.92093,-61.0719,-2592.42)">
        <path d="M192.29,792.91C191.38,792.25 190.59,791.45 189.76,790.71C182.42,790.64 175.07,790.9 167.79,791.8L167.79,791.99C175.93,792.77 184.13,792.55 192.29,792.91Z" style="fill:rgb(224,169,52);fill-rule:nonzero;"/>
    </g>
    <g transform="matrix(3.91859,0,0,3.92093,-61.0719,-2592.42)">
        <path d="M76.95,792.69C81.05,792.56 85.19,792.44 89.25,791.82C85.1,791.28 80.93,790.98 76.76,790.8C76.76,791.43 76.77,792.07 76.77,792.69L76.95,792.69Z" style="fill:rgb(224,169,52);fill-rule:nonzero;"/>
    </g>
    <g transform="matrix(3.91859,0,0,3.92093,-61.0719,-2592.42)">
        <path d="M40.91,854.46C40.92,855.44 40.92,856.43 40.93,857.41C49.17,857.31 57.43,857.17 65.62,856.18C57.43,855.05 49.16,854.6 40.91,854.46Z" style="fill:rgb(224,169,52);fill-rule:nonzero;"/>
    </g>
    <g transform="matrix(3.91859,0,0,3.92093,-61.0719,-2592.42)">
        <path d="M95.39,796.2C95.84,796.4 96.24,795.77 96.19,795.38C95.81,795.28 95.2,795.79 95.39,796.2Z" style="fill:rgb(224,169,52);fill-rule:nonzero;"/>
    </g>
    <g transform="matrix(3.91859,0,0,3.92093,-61.0719,-2592.42)">
        <path d="M59.81,800.83C58.94,801.53 58.47,802.67 57.65,803.46C60.08,803.45 62.51,803.43 64.94,803.38C64.93,802.58 64.92,801.77 64.91,800.98C63.21,800.93 61.51,800.89 59.81,800.83Z" style="fill:rgb(224,169,52);fill-rule:nonzero;"/>
    </g>
    <g transform="matrix(3.91859,0,0,3.92093,-61.0719,-2592.42)">
        <path d="M80.97,802.34C79.62,802.09 78.26,801.9 76.9,801.74C76.9,802.07 76.91,802.42 76.91,802.76C78.26,802.64 79.62,802.52 80.97,802.34Z" style="fill:rgb(224,169,52);fill-rule:nonzero;"/>
    </g>
    <g transform="matrix(3.91859,0,0,3.92093,-61.0719,-2592.42)">
        <path d="M62.57,867.38C63.49,867.25 64.41,867.13 65.34,867.12C57.39,865.88 49.3,865.53 41.26,865.38C41.29,866.34 41.35,867.3 41.45,868.26C48.5,868.18 55.55,868.06 62.57,867.38Z" style="fill:rgb(224,169,52);fill-rule:nonzero;"/>
    </g>
    <g transform="matrix(3.91859,0,0,3.92093,-61.0719,-2592.42)">
        <path d="M56.18,923.95C55.6,923.35 55.39,924.45 55.1,924.8C54.82,925.44 53.98,925.9 54.05,926.66C55.21,928.25 56.74,929.51 58.11,930.91C60.87,933.45 63.76,935.84 66.76,938.08C66.74,936.52 66.72,934.92 66.69,933.28C63.02,930.37 59.51,927.24 56.18,923.95Z" style="fill:rgb(224,169,52);fill-rule:nonzero;"/>
    </g>
    <g transform="matrix(3.91859,0,0,3.92093,-61.0719,-2592.42)">
        <path d="M80.82,946.82C82.68,947.76 84.52,948.79 86.53,949.41C86.65,948.28 86.72,947.1 87.21,946.06C84.38,944.73 81.61,943.28 78.92,941.69C78.94,943.12 78.96,944.5 78.98,945.86C79.58,946.18 80.19,946.51 80.82,946.82Z" style="fill:rgb(224,169,52);fill-rule:nonzero;"/>
    </g>
    <g transform="matrix(3.91859,0,0,3.92093,-61.0719,-2592.42)">
        <path d="M121.89,951.94C120,951.8 118.15,951.36 116.26,951.34C115.97,952.43 115.57,953.49 114.99,954.45C120.67,955.28 126.41,955.58 132.15,955.46C137.58,955.33 143.01,954.96 148.36,953.96C148,952.85 147.66,951.74 147.51,950.58C139.09,952.32 130.43,952.57 121.89,951.94Z" style="fill:rgb(224,169,52);fill-rule:nonzero;"/>
    </g>
    <g transform="matrix(3.91859,0,0,3.92093,-61.0719,-2592.42)">
        <path d="M199.01,800.98C194.7,800.88 190.4,801.15 186.09,801.3C183.21,801.56 180.31,801.66 177.45,802.09C185.22,802.95 193.04,803.24 200.85,803.41C200.23,802.59 199.51,801.86 199.01,800.98Z" style="fill:rgb(224,169,52);fill-rule:nonzero;"/>
    </g>
    <g transform="matrix(3.91859,0,0,3.92093,-61.0719,-2592.42)">
        <path d="M89.89,909.25C87.13,908.8 82.97,908.54 78.43,908.38C78.44,908.92 78.45,909.47 78.45,910.01C82.28,909.89 86.1,909.69 89.89,909.25Z" style="fill:rgb(224,169,52);fill-rule:nonzero;"/>
    </g>
    <g transform="matrix(3.91859,0,0,3.92093,-61.0719,-2592.42)">
        <path d="M66.34,908.11C62.55,908.06 59.14,908.02 56.75,907.95C56.72,908.03 56.67,908.09 56.63,908.16C56.9,908.83 57.12,909.52 57.28,910.23C59.72,910.25 63.6,910.22 66.38,910.2C66.38,910.05 66.38,909.91 66.37,909.76C66.36,909.22 66.35,908.66 66.34,908.11Z" style="fill:rgb(224,169,52);fill-rule:nonzero;"/>
    </g>
    <g transform="matrix(3.91859,0,0,3.92093,-61.0719,-2592.42)">
        <path d="M53.99,812.06C53.43,812.1 52.81,811.94 52.3,812.24C51.9,813.22 51.36,814.14 50.69,814.97C55.49,814.98 60.3,814.95 65.1,814.86C65.09,814.05 65.08,813.24 65.07,812.45C61.37,812.3 57.67,812.19 53.99,812.06Z" style="fill:rgb(224,169,52);fill-rule:nonzero;"/>
    </g>
    <g transform="matrix(3.91859,0,0,3.92093,-61.0719,-2592.42)">
        <path d="M84.23,814.03C84.23,813.99 84.24,813.9 84.24,813.86C81.85,813.55 79.45,813.32 77.06,813.12C77.07,813.55 77.07,814.01 77.08,814.46C79.47,814.34 81.85,814.21 84.23,814.03Z" style="fill:rgb(224,169,52);fill-rule:nonzero;"/>
    </g>
    <g transform="matrix(3.91859,0,0,3.92093,-61.0719,-2592.42)">
        <path d="M208.21,814.77C207.86,814.17 207.4,813.66 206.96,813.14C204.71,813.06 202.45,813.11 200.22,812.81C201.05,813.4 201.74,814.17 202.63,814.69C204.49,814.67 206.35,814.62 208.21,814.77Z" style="fill:rgb(224,169,52);fill-rule:nonzero;"/>
    </g>
    <g transform="matrix(3.91859,0,0,3.92093,-61.0719,-2592.42)">
        <path d="M44.33,832.12C44.08,833.18 43.73,834.21 43.38,835.25C48.24,835.35 53.1,835.11 57.96,835.01C60.42,834.9 62.89,834.83 65.35,834.7C65.34,834.22 65.34,833.73 65.33,833.25C58.35,832.63 51.34,832.26 44.33,832.12Z" style="fill:rgb(224,169,52);fill-rule:nonzero;"/>
    </g>
    <g transform="matrix(3.91859,0,0,3.92093,-61.0719,-2592.42)">
        <path d="M64.36,844.84C56.9,844.19 49.41,843.94 41.93,843.58C41.83,844.61 41.68,845.63 41.45,846.64C49.47,846.55 57.5,846.42 65.5,845.84C65.5,845.56 65.49,845.27 65.49,844.99C65.11,844.94 64.74,844.9 64.36,844.84Z" style="fill:rgb(224,169,52);fill-rule:nonzero;"/>
    </g>
    <g transform="matrix(3.91859,0,0,3.92093,-61.0719,-2592.42)">
        <path d="M55.22,878.9C57.28,878.81 59.29,878.31 61.32,878.06C55.3,876.74 49.11,876.6 42.97,876.37C43.11,877.37 43.46,878.33 43.5,879.35C47.4,879.35 51.31,879.14 55.22,878.9Z" style="fill:rgb(224,169,52);fill-rule:nonzero;"/>
    </g>
    <g transform="matrix(3.91859,0,0,3.92093,-61.0719,-2592.42)">
        <path d="M87.33,889.05C87.33,889.05 83.49,888.93 78.15,888.77C78.15,888.95 78.16,889.13 78.16,889.31L87.33,889.05Z" style="fill:rgb(224,169,52);fill-rule:nonzero;"/>
    </g>
    <g transform="matrix(3.91859,0,0,3.92093,-61.0719,-2592.42)">
        <path d="M46.48,887.94C46.77,888.67 46.97,889.43 47.11,890.21L66.1,889.67C66.09,889.26 66.09,888.85 66.08,888.43C57.36,888.18 48.77,887.95 46.48,887.94Z" style="fill:rgb(224,169,52);fill-rule:nonzero;"/>
    </g>
    <g transform="matrix(3.91859,0,0,3.92093,-61.0719,-2592.42)">
        <path d="M88.19,898.94C88.19,898.94 83.92,898.86 78.3,898.76C78.3,898.92 78.3,899.09 78.31,899.25C83.88,899.07 88.19,898.94 88.19,898.94Z" style="fill:rgb(224,169,52);fill-rule:nonzero;"/>
    </g>
    <g transform="matrix(3.91859,0,0,3.92093,-61.0719,-2592.42)">
        <path d="M51.37,898.32C51.57,898.86 51.77,899.41 51.97,899.95C52.37,900.25 52.91,900.03 53.37,900.06C53.88,900.03 59.58,899.84 66.23,899.63C66.22,899.27 66.22,898.91 66.22,898.55C58.89,898.42 52.32,898.32 51.37,898.32Z" style="fill:rgb(224,169,52);fill-rule:nonzero;"/>
    </g>
    <g transform="matrix(3.91859,0,0,3.92093,-61.0719,-2592.42)">
        <path d="M197.17,908.41C198.25,909.76 200.01,909.99 201.63,909.84C201.79,909.32 201.9,908.78 201.96,908.24C200.37,908.38 198.77,908.57 197.17,908.41Z" style="fill:rgb(224,169,52);fill-rule:nonzero;"/>
    </g>
    <g transform="matrix(3.91859,0,0,3.92093,-61.0719,-2592.42)">
        <path d="M79.73,929.58C82.7,929.54 85.67,929.45 88.63,929.26C89.04,929.18 89.53,929.26 89.87,928.97C89.99,928.61 90.07,928.23 90.16,927.86C86.35,927.53 82.53,927.33 78.7,927.27C78.71,927.97 78.72,928.65 78.73,929.34C79.03,929.5 79.34,929.62 79.73,929.58Z" style="fill:rgb(224,169,52);fill-rule:nonzero;"/>
    </g>
    <g transform="matrix(3.91859,0,0,3.92093,-61.0719,-2592.42)">
        <path d="M174.42,929.16C176.2,929.4 178,929.49 179.79,929.67C180.78,928.9 181.98,928.26 182.72,927.25C179.54,927.26 176.4,927.68 173.24,927.93C173.5,928.42 173.77,929.12 174.42,929.16Z" style="fill:rgb(224,169,52);fill-rule:nonzero;"/>
    </g>
    <g transform="matrix(3.91859,0,0,3.92093,-61.0719,-2592.42)">
        <path d="M136.15,948.75C139.2,948.57 142.3,948.44 145.28,947.7C145.08,947.54 145.01,947.19 144.71,947.2C141.05,946.82 137.36,946.75 133.69,946.6C128.65,946.39 123.62,946.65 118.59,947C118.01,947.1 118.03,947.86 117.77,948.28C123.87,948.91 130.02,949.12 136.15,948.75Z" style="fill:rgb(224,169,52);fill-rule:nonzero;"/>
    </g>
    <g transform="matrix(3.91859,0,0,3.92093,-61.0719,-2592.42)">
        <path d="M47.99,821.1C47.76,821.99 47.55,822.92 46.97,823.66C51.66,823.76 56.35,823.53 61.04,823.51C62.43,823.47 63.82,823.43 65.2,823.38C65.19,822.69 65.18,822 65.17,821.32C59.45,821.21 53.72,821.19 47.99,821.1Z" style="fill:rgb(224,169,52);fill-rule:nonzero;"/>
    </g>
    <g transform="matrix(3.91859,0,0,3.92093,-61.0719,-2592.42)">
        <path d="M83.72,822.29C84.11,822.3 84.49,822.32 84.88,822.34C84.86,822.29 84.82,822.2 84.79,822.16C82.38,822.13 79.98,821.82 77.57,821.75C77.44,821.74 77.31,821.74 77.18,821.73C77.19,822.09 77.19,822.47 77.2,822.84C79.38,822.69 81.55,822.52 83.72,822.29Z" style="fill:rgb(224,169,52);fill-rule:nonzero;"/>
    </g>
    <g transform="matrix(3.91859,0,0,3.92093,-61.0719,-2592.42)">
        <path d="M214.98,845.41C215.31,846.53 216.61,845.66 217.34,846.32C217.47,846.01 217.51,845.67 217.56,845.34C216.7,845.33 215.82,845.21 214.98,845.41Z" style="fill:rgb(224,169,52);fill-rule:nonzero;"/>
    </g>
    <g transform="matrix(3.91859,0,0,3.92093,-61.0719,-2592.42)">
        <path d="M215.63,867.86C216.32,867.74 217.11,868.12 217.74,867.76C217.78,867.31 217.78,866.86 217.79,866.42C217.08,866.44 216.37,866.46 215.66,866.47C215.65,866.93 215.64,867.4 215.63,867.86Z" style="fill:rgb(224,169,52);fill-rule:nonzero;"/>
    </g>
    <g transform="matrix(3.91859,0,0,3.92093,-61.0719,-2592.42)">
        <path d="M211.76,890.1C211.92,889.47 212.12,888.86 212.36,888.25C211.24,888.19 210.13,888.31 209.02,888.35C208.57,889 208.1,889.63 207.6,890.25C208.78,890.16 210.02,890.02 211.15,890.42C211.3,890.34 211.6,890.18 211.76,890.1Z" style="fill:rgb(224,169,52);fill-rule:nonzero;"/>
    </g>
    <g transform="matrix(3.91859,0,0,3.92093,-61.0719,-2592.42)">
        <path d="M206.48,899.99C206.68,899.42 206.83,898.8 207.14,898.29C205.45,898.39 203.76,898.43 202.07,898.53C201.7,899.13 200.85,899.25 200.55,899.88C202.53,899.75 204.5,900.04 206.48,899.99Z" style="fill:rgb(224,169,52);fill-rule:nonzero;"/>
    </g>
    <g transform="matrix(3.91859,0,0,3.92093,-61.0719,-2592.42)">
        <path d="M192.02,918.27C191.48,918.19 190.94,918.13 190.41,918.12C185.77,918.11 181.1,918.23 176.56,919.26C180.95,919.85 185.41,919.73 189.83,919.89C190.51,919.29 191.31,918.84 192.02,918.27Z" style="fill:rgb(224,169,52);fill-rule:nonzero;"/>
    </g>
    <g transform="matrix(3.91859,0,0,3.92093,-61.0719,-2592.42)">
        <path d="M134,919.27C133.08,919.15 132.16,919.04 131.24,918.88C128.81,918.46 126.3,918.64 123.9,919.18C127.26,919.36 130.64,919.5 134,919.27Z" style="fill:rgb(224,169,52);fill-rule:nonzero;"/>
    </g>
    <g transform="matrix(3.91859,0,0,3.92093,-61.0719,-2592.42)">
        <path d="M133.4,929.47C136.16,929.31 138.93,929.16 141.67,928.74C133.98,927.73 126.2,927.82 118.49,928.53C118.5,928.67 118.51,928.94 118.51,929.07C123.46,929.37 128.43,929.81 133.4,929.47Z" style="fill:rgb(224,169,52);fill-rule:nonzero;"/>
    </g>
    <g transform="matrix(3.91859,0,0,3.92093,-61.0719,-2592.42)">
        <path d="M72.95,793.62C72.81,774.66 73.17,746.12 73.22,727.14C73.51,726.95 73.8,726.75 74.09,726.53L74.78,724.98C75.72,720.59 76.78,714.04 78.78,711.01L78.36,709.42C77.23,703.52 69.89,672.19 69.89,672.19C69.89,672.19 63.17,706.61 62.45,711.37C65.12,715.25 65.52,720.11 66.58,724.6C66.57,724.72 66.54,724.97 66.53,725.09C67,726.23 68.28,727.36 68.28,727.36C68.3,730.96 68.42,745.02 68.35,748.63C68.44,753.33 68.19,758.06 68.31,762.76C68.24,773.33 70.92,961.22 71,971.78L75.49,971.78C75.51,971.51 72.95,793.9 72.95,793.62ZM73.29,693.91C74.67,704.08 75.65,714.55 73.59,724.72C73.53,724.74 73.41,724.8 73.36,724.83C72.85,722.81 73.05,720.71 72.96,718.64C73,709.27 73.05,699.89 72.91,690.53C73.07,691.65 73.21,692.79 73.29,693.91Z" style="fill:rgb(179,0,0);fill-rule:nonzero;"/>
    </g>
    <g transform="matrix(3.91859,0,0,3.92093,-61.0719,-2592.42)">
        <path d="M48.42,909.89C48.33,909.97 52.9,917.14 57.47,921.53C60.31,923.72 60.79,919.39 60.79,919.39C60.79,919.39 53.73,912.2 50.41,905.89C50.41,905.89 49.89,905.79 49.85,906.21C49.81,906.63 48.43,909.71 48.43,909.71L48.42,909.89Z" style="fill:rgb(224,169,52);fill-rule:nonzero;"/>
    </g>
    <g transform="matrix(3.91859,0,0,3.92093,-61.0719,-2592.42)">
        <path d="M48.28,914.6C48.28,914.6 54.43,922.86 59.18,926.83C62.17,929.55 55.99,928.84 55.99,928.84C55.99,928.84 49.59,922.79 46,917.56C43.46,914.12 43.63,912.56 43.63,912.56L48.28,914.6Z" style="fill:rgb(224,169,52);fill-rule:nonzero;"/>
    </g>
    <g transform="matrix(3.91859,0,0,3.92093,-61.0719,-2592.42)">
        <path d="M71.28,864.99C70.45,864.69 70.35,863.71 69.92,863.04C69.25,862.05 68.94,860.88 68.07,860.04C67.45,858.56 66.84,857.08 65.93,855.75C66.5,854.73 65.74,853.57 66.5,852.64L70.35,850.14C71.72,850.07 73.07,849.58 74.46,849.56C77.12,851.17 79.5,853.23 82.05,855C83.19,855.72 84.13,856.85 85.48,857.11L80.95,863.02C79.77,863.38 78.55,863.72 77.3,863.64C77.31,863.75 77.34,863.98 77.35,864.09L73.65,865.22C72.84,865.23 72.03,865.29 71.28,864.99Z" style="fill:rgb(179,0,0);fill-rule:nonzero;"/>
    </g>
</svg>
